<?xml version="1.0" standalone="no"?>
<!DOCTYPE svg PUBLIC "-//W3C//DTD SVG 20010904//EN"
 "http://www.w3.org/TR/2001/REC-SVG-20010904/DTD/svg10.dtd">
<svg version="1.0" xmlns="http://www.w3.org/2000/svg"
 width="278.000000pt" height="291.000000pt" viewBox="0 0 278.000000 291.000000"
 preserveAspectRatio="xMidYMid meet">

<g transform="translate(0.000000,291.000000) scale(0.100000,-0.100000)"
fill="#000000" stroke="none">
<path d="M1315 2833 c-59 -41 -67 -49 -41 -39 12 4 23 2 28 -6 5 -9 8 -6 8 9
0 12 5 25 10 28 6 3 10 -3 10 -14 0 -12 5 -21 10 -21 6 0 10 6 10 13 0 6 7 24
14 40 19 35 12 34 -49 -10z"/>
<path d="M1401 2863 c2 -20 38 -86 38 -71 1 9 3 23 7 31 3 8 -5 21 -20 31 -15
9 -26 13 -25 9z"/>
<path d="M1457 2778 c-2 -29 0 -64 5 -78 10 -24 11 -23 22 20 7 25 16 55 20
67 5 16 2 24 -13 32 -28 16 -28 16 -34 -41z"/>
<path d="M1516 2746 c-20 -70 -20 -73 5 -50 24 21 59 90 51 98 -3 4 -13 6 -23
6 -13 0 -22 -15 -33 -54z"/>
<path d="M1195 2770 c-22 -10 -34 -19 -27 -19 7 -1 22 -21 33 -46 11 -24 24
-47 30 -51 6 -3 -1 17 -15 45 -14 28 -26 52 -26 55 0 2 14 7 30 11 17 4 30 11
30 16 0 12 -8 11 -55 -11z"/>
<path d="M1587 2773 c-2 -10 -8 -26 -12 -37 -7 -17 -6 -17 16 -6 13 7 34 22
46 33 23 20 59 17 50 -6 -2 -6 -8 -23 -12 -37 -8 -25 -8 -25 14 -6 31 28 36
13 7 -21 -25 -30 -46 -73 -46 -96 0 -6 20 8 44 32 24 24 49 42 56 39 6 -2 -11
-25 -39 -51 -28 -26 -51 -50 -51 -52 0 -16 48 0 80 25 49 39 76 38 30 0 l-34
-30 38 0 c20 0 47 5 59 11 16 9 22 9 25 0 2 -6 12 -11 23 -11 10 0 19 -4 19
-9 0 -4 -43 -48 -96 -97 -131 -121 -164 -155 -159 -165 3 -4 21 8 41 27 40 37
87 54 152 54 64 0 50 -16 -20 -24 -58 -7 -61 -9 -44 -22 11 -8 34 -14 52 -14
38 0 64 -9 64 -21 0 -13 -57 -11 -83 3 -20 10 -21 10 -8 -5 7 -10 19 -17 25
-17 7 0 21 -7 32 -16 10 -8 13 -13 7 -9 -21 10 -53 14 -53 6 0 -4 23 -15 50
-25 28 -10 50 -22 50 -27 0 -8 -46 -14 -75 -10 -5 1 -2 -5 8 -13 19 -15 9 -30
-15 -21 -7 3 -34 9 -60 14 -38 6 -45 6 -41 -6 4 -10 -3 -13 -23 -13 -16 1
-113 -2 -215 -6 -102 -4 -197 -4 -210 -1 -30 8 -34 37 -13 78 8 16 12 29 8 29
-3 0 1 12 11 26 24 37 12 41 -41 16 -47 -23 -62 -21 -86 13 -4 6 -8 0 -8 -13
0 -25 33 -97 58 -124 14 -17 13 -18 -21 -18 -19 0 -37 5 -39 12 -3 7 -10 8
-17 4 -16 -10 -221 -14 -221 -4 0 4 8 11 17 17 10 5 15 12 12 15 -11 11 -37
-5 -42 -25 -4 -15 -14 -19 -44 -19 -34 0 -41 4 -66 45 -39 60 -130 140 -197
172 -59 28 -189 46 -176 25 22 -36 189 -102 258 -102 26 0 28 -2 21 -27 -4
-16 -7 -120 -8 -233 0 -193 2 -211 28 -314 16 -59 44 -145 64 -190 19 -44 37
-87 40 -94 9 -21 -76 24 -116 62 l-34 31 20 -35 c14 -24 22 -61 26 -115 6 -83
47 -224 74 -250 18 -18 35 -75 22 -75 -28 0 -124 77 -151 121 -17 27 -33 49
-35 49 -10 0 33 -67 68 -105 33 -36 40 -51 49 -111 12 -88 34 -162 71 -237 16
-33 29 -64 29 -69 0 -5 -15 -1 -33 8 -140 73 -180 172 -197 484 -5 96 -13 200
-19 230 -5 30 -10 76 -10 103 -1 26 -5 47 -11 47 -12 0 -12 -44 0 -135 6 -38
14 -144 20 -235 14 -238 26 -306 62 -363 17 -27 38 -55 45 -63 13 -12 12 -15
-1 -20 -8 -3 -25 -4 -38 -2 -19 2 -23 10 -26 46 -2 30 -8 42 -18 42 -12 0 -14
-7 -9 -33 4 -17 8 -36 9 -42 0 -6 -34 -12 -77 -16 -86 -6 -97 -13 -97 -65 0
-32 -1 -32 -76 -49 -42 -9 -72 -20 -68 -24 5 -4 26 -19 47 -35 20 -15 37 -31
37 -37 0 -5 -12 -28 -26 -50 -14 -23 -23 -43 -21 -45 2 -3 17 0 33 6 16 6 54
12 86 13 32 1 58 3 58 3 0 1 -7 21 -15 45 -20 55 -12 60 80 53 169 -12 218
-21 325 -60 96 -35 97 -36 71 -72 -11 -17 -21 -35 -21 -40 0 -22 233 -95 360
-112 131 -18 268 2 450 65 58 20 106 38 107 39 1 1 -9 19 -23 40 -14 21 -24
39 -22 41 24 21 160 65 263 85 68 14 219 21 233 12 10 -7 9 -17 -3 -51 -8 -24
-15 -45 -15 -46 0 -1 10 0 23 2 12 2 52 -2 90 -10 37 -7 67 -12 67 -10 0 2
-11 21 -25 43 -14 22 -25 44 -25 49 0 6 17 22 38 37 20 16 41 31 46 35 4 4
-26 15 -67 24 l-76 17 -3 36 c-4 47 -32 62 -116 62 l-63 0 7 50 c6 43 4 49 -9
44 -16 -6 -27 -34 -27 -71 0 -20 -5 -23 -35 -23 -31 0 -47 13 -27 22 4 2 22
22 40 45 43 55 58 136 72 380 6 103 15 215 19 248 12 78 13 125 3 125 -11 0
-33 -190 -42 -370 -16 -327 -55 -422 -197 -493 -39 -19 -41 -11 -9 51 35 71
64 163 77 244 10 59 18 80 44 108 38 41 65 81 65 94 0 5 -14 -11 -30 -36 -43
-65 -161 -139 -143 -90 3 9 9 22 14 27 20 28 68 191 79 270 6 50 19 104 28
120 l16 30 -37 -32 c-45 -40 -123 -81 -114 -61 40 90 81 203 104 288 27 99 28
116 27 310 0 113 -3 217 -7 231 -6 25 -5 27 41 32 74 9 143 33 197 69 l50 33
-53 3 c-118 7 -242 -64 -332 -187 -42 -58 -45 -61 -87 -61 -24 0 -43 5 -43 10
0 6 3 10 8 10 4 0 15 7 25 14 18 14 18 17 -2 81 -25 79 -27 191 -6 250 8 22
15 41 15 42 0 0 -20 13 -45 28 -69 40 -111 81 -151 146 -37 59 -37 59 -84 59
-37 0 -49 -4 -53 -17z m293 -342 c0 -14 -10 -18 -65 -26 -57 -8 -54 7 5 23 46
13 60 14 60 3z m207 -348 c-2 -16 -4 -5 -4 22 0 28 2 40 4 28 2 -13 2 -35 0
-50z m-952 -4 c0 -21 -5 -26 -23 -26 -18 0 -20 2 -11 13 9 11 9 17 0 28 -10
11 -7 14 11 13 18 -2 23 -8 23 -28z m52 1 c0 -17 -6 -26 -17 -26 -11 0 -17 9
-17 26 0 17 6 26 17 26 11 0 17 -9 17 -26z m33 0 c0 -16 -4 -30 -10 -30 -11 0
-14 43 -3 53 11 12 13 8 13 -23z m76 -1 c-1 -21 -6 -26 -24 -26 -18 0 -20 2
-11 13 9 11 9 17 0 28 -10 11 -7 14 12 12 19 -1 24 -6 23 -27z m64 16 c0 -8 5
-15 10 -15 6 0 10 7 10 15 0 27 18 15 22 -15 3 -16 1 -30 -4 -30 -4 0 -8 6 -8
13 0 8 -4 7 -10 -3 -8 -12 -11 -13 -19 -1 -7 11 -9 11 -14 0 -3 -8 -6 1 -6 19
-1 17 4 32 9 32 6 0 10 -7 10 -15z m88 4 c-22 -12 -23 -39 -2 -39 8 0 12 -5 9
-10 -8 -13 -45 6 -45 23 0 18 21 37 40 37 12 -1 12 -2 -2 -11z m42 -4 c0 -20
10 -19 25 2 11 14 13 13 19 -12 8 -31 -1 -46 -14 -25 -8 12 -10 12 -10 1 0
-10 -3 -11 -14 -2 -11 9 -15 9 -19 -1 -3 -7 -6 2 -6 20 -1 17 4 32 9 32 6 0
10 -7 10 -15z m97 -15 c0 -17 -6 -26 -17 -26 -11 0 -17 9 -17 26 0 17 6 26 17
26 11 0 17 -9 17 -26z m44 -20 c6 0 8 -4 4 -10 -10 -16 -35 1 -35 24 0 33 14
42 18 12 2 -14 8 -26 13 -26z m26 3 c-3 -10 -5 -2 -5 17 0 19 2 27 5 18 2 -10
2 -26 0 -35z m52 31 c-9 -11 -9 -17 0 -28 9 -11 7 -13 -11 -13 -18 0 -23 5
-23 27 0 22 5 28 23 28 18 0 20 -3 11 -14z m-459 -18 c0 -3 -4 -8 -10 -11 -5
-3 -10 -1 -10 4 0 6 5 11 10 11 6 0 10 -2 10 -4z m-135 -56 c13 -5 -30 -9
-115 -9 l-135 -1 0 -87 c0 -255 -7 -446 -15 -428 -10 23 -13 518 -3 528 9 10
244 7 268 -3z m852 -20 c1 -14 0 -18 -3 -7 -5 16 -30 17 -322 18 -174 1 -301
5 -282 9 19 4 163 7 320 6 l285 -1 2 -25z m38 -50 c-15 -16 -33 -26 -38 -23
-6 3 3 17 19 30 41 33 53 29 19 -7z m-572 -11 c36 -10 37 -11 37 -60 0 -50 0
-50 -22 -35 -12 9 -30 16 -40 16 -36 0 -29 -23 21 -71 45 -43 51 -53 51 -90 0
-83 -74 -134 -156 -107 -38 13 -39 14 -42 67 -2 29 1 51 5 49 4 -2 20 -10 36
-18 21 -10 30 -11 39 -2 8 8 0 24 -35 61 -41 44 -47 56 -47 94 0 34 6 49 28
69 42 40 64 44 125 27z m-443 -175 l0 -175 -52 3 -53 3 -2 173 -2 172 55 0 54
0 0 -176z m216 161 c38 -16 64 -62 64 -115 0 -43 -46 -91 -96 -99 l-39 -6 -3
-58 -3 -57 -49 0 -50 0 0 175 0 175 70 0 c39 0 86 -6 106 -15z m474 -30 l0
-45 -41 0 c-36 0 -40 -2 -37 -22 2 -18 10 -23 33 -23 28 -1 30 -3 33 -43 l3
-42 -35 0 -36 0 0 -66 0 -65 -47 3 -48 3 -3 173 -2 172 90 0 90 0 0 -45z m180
39 c0 -3 16 -77 35 -165 19 -88 35 -165 35 -170 0 -6 -21 -9 -47 -7 -41 3 -48
6 -51 26 -3 17 -10 22 -32 22 -22 0 -29 -5 -32 -22 -2 -19 -10 -24 -42 -26
-21 -2 -43 1 -48 6 -7 7 3 69 28 176 l38 166 58 0 c32 0 58 -3 58 -6z m173
-321 c-3 -7 -13 -13 -23 -13 -22 0 -22 30 0 47 12 9 16 8 21 -5 3 -9 4 -23 2
-29z m-1230 25 c2 -7 1 -21 -2 -31 -6 -17 -8 -17 -20 -3 -14 16 -9 46 8 46 5
0 11 -6 14 -12z m1163 -196 c-12 -12 -18 8 -10 35 l8 28 4 -28 c2 -16 1 -31
-2 -35z m2 -109 c-1 -87 -2 -91 -7 -38 -3 33 -4 77 -2 98 6 68 11 38 9 -60z
m-565 -58 c-2 -23 3 -33 20 -40 23 -10 35 -61 22 -93 -4 -10 -8 -70 -8 -134
-2 -102 -4 -118 -18 -118 -9 0 -19 7 -23 15 -3 8 -10 15 -16 15 -5 0 -10 -7
-10 -15 0 -8 -9 -15 -20 -15 -11 0 -20 5 -20 10 0 6 4 10 8 10 8 0 4 131 -5
140 -2 2 -9 -2 -14 -10 -7 -11 -9 9 -4 65 3 44 6 90 6 103 -1 12 5 22 13 22
19 0 40 26 26 35 -5 3 -10 15 -10 26 0 16 6 20 28 17 23 -3 27 -7 25 -33z
m-174 -29 c7 -8 11 -21 9 -30 -2 -8 5 -21 14 -28 22 -16 26 -100 8 -178 -7
-30 -13 -72 -14 -92 0 -21 -4 -38 -8 -38 -4 0 -8 5 -8 12 0 9 -3 9 -12 0 -16
-16 -31 -16 -22 0 13 20 5 72 -12 85 -12 9 -15 25 -11 70 3 32 6 63 7 68 6 27
-2 45 -25 51 -14 3 -25 9 -25 12 0 7 73 80 81 81 4 1 12 -5 18 -13z m353 -18
c-2 -19 2 -28 12 -28 31 0 49 -116 22 -143 -9 -9 -16 -41 -18 -89 -3 -73 -4
-75 -29 -75 -27 0 -27 1 -37 106 -6 58 -10 117 -9 131 2 20 -3 26 -23 28 -39
6 -44 18 -14 41 30 24 53 28 35 7 -10 -12 -8 -13 8 -9 23 6 25 11 12 33 -13
20 -3 32 22 28 17 -2 21 -9 19 -30z m-594 -6 c2 -12 11 -26 21 -32 17 -9 34
-78 32 -135 0 -18 2 -18 19 5 11 14 18 30 15 37 -2 6 3 17 10 23 12 10 16 9
21 -6 3 -11 10 -26 15 -34 31 -52 52 -123 25 -87 -12 15 -14 9 -20 -53 -9 -91
-31 -96 -41 -10 -4 33 -11 62 -16 65 -4 3 -6 11 -3 18 2 8 -7 12 -26 13 l-29
1 -3 -80 c-3 -74 -5 -80 -25 -83 -30 -5 -35 6 -42 95 -5 57 -10 75 -20 73 -11
-2 -13 12 -8 74 3 42 10 80 15 83 5 3 12 19 16 34 8 34 39 34 44 -1z m734 -74
c-1 -9 4 -18 13 -22 8 -3 15 -15 15 -26 0 -11 4 -20 8 -20 12 0 52 57 52 75 0
8 7 15 15 15 8 0 15 -7 15 -15 0 -9 7 -18 15 -21 31 -12 54 -67 48 -113 -5
-34 -8 -40 -15 -26 -6 9 -7 27 -4 40 3 13 2 26 -2 29 -12 7 -34 -136 -27 -167
7 -27 -12 -48 -25 -28 -4 7 -10 53 -14 103 -3 49 -8 94 -12 99 -3 5 -15 3 -26
-6 -19 -13 -23 -12 -35 3 -12 15 -13 13 -8 -18 4 -19 1 -55 -5 -80 -6 -25 -12
-54 -13 -65 -1 -11 -10 -21 -21 -23 -11 -3 -16 0 -12 7 10 16 -3 51 -18 51 -9
0 -12 16 -9 58 2 44 1 52 -7 37 -8 -16 -9 -13 -5 14 7 44 53 123 68 118 7 -2
11 -11 9 -19z m-885 -80 c-3 -8 -6 -5 -6 6 -1 11 2 17 5 13 3 -3 4 -12 1 -19z
m1133 -53 c0 -37 -4 -65 -10 -65 -6 0 -10 28 -10 65 0 37 4 65 10 65 6 0 10
-28 10 -65z m-255 -275 c-11 -5 -45 -9 -75 -9 -76 -1 -165 -26 -206 -57 -38
-29 -47 -23 -11 7 50 44 133 66 257 67 39 0 49 -2 35 -8z m559 -67 c4 -9 0
-23 -9 -32 -14 -14 -18 -13 -43 13 -18 19 -21 27 -10 23 10 -3 20 -2 23 3 10
16 32 12 39 -7z m50 8 c3 -5 -1 -12 -10 -15 -20 -8 -29 -1 -19 13 8 13 22 14
29 2z m-179 -21 c-2 -11 2 -20 8 -20 7 0 7 -4 -3 -9 -19 -13 -30 -4 -30 25 0
14 6 24 14 24 9 0 13 -7 11 -20z m61 -2 c19 -21 19 -21 0 -14 -12 4 -23 2 -28
-6 -5 -9 -8 -4 -8 15 0 33 10 34 36 5z m-1578 -15 c3 -19 -1 -23 -22 -23 -21
0 -26 5 -26 26 0 21 4 25 23 22 14 -2 23 -11 25 -25z m57 7 c3 -11 13 -20 21
-20 17 0 18 12 2 28 -8 8 -9 12 -1 12 6 0 18 -6 26 -14 9 -10 18 -11 24 -5 12
12 43 1 43 -16 0 -25 -25 -35 -48 -20 -12 9 -23 11 -27 5 -4 -6 -15 -6 -30 0
-14 5 -32 7 -40 4 -18 -7 -19 0 -5 27 14 25 27 24 35 -1z m1351 5 c-3 -8 2
-21 10 -30 14 -13 13 -15 -4 -15 -23 0 -38 40 -19 52 17 11 20 10 13 -7z m51
4 c-21 -12 -13 -31 10 -22 11 4 14 3 9 -5 -9 -15 -33 -16 -41 -2 -11 17 3 40
22 40 17 -1 17 -1 0 -11z m243 -8 c0 -11 -31 -24 -39 -16 -3 3 1 10 9 15 19
12 30 12 30 1z m-330 -28 c0 -26 -1 -26 -15 -7 -19 25 -19 34 0 34 10 0 15
-10 15 -27z m-1155 -2 c-8 -26 12 -37 34 -17 25 23 31 20 31 -16 0 -25 -3 -29
-12 -20 -7 7 -21 12 -32 12 -33 0 -49 15 -41 39 3 11 11 21 16 21 6 0 8 -9 4
-19z m1113 7 c7 -7 12 -17 12 -24 0 -19 -32 -26 -48 -10 -13 12 -13 18 -2 30
15 19 22 20 38 4z m-776 -18 c74 -11 165 -47 197 -79 l21 -21 25 26 c14 14 46
34 70 45 42 19 168 39 243 39 30 0 32 -2 32 -36 0 -30 -4 -37 -33 -49 -63 -26
-237 -56 -331 -56 -94 0 -268 29 -333 56 -29 12 -33 19 -33 49 0 35 1 36 38
36 20 0 67 -5 104 -10z m241 -26 c-3 -8 -11 -14 -18 -14 -18 0 -26 25 -12 39
14 14 38 -5 30 -25z m486 10 c10 -22 9 -26 -3 -21 -8 3 -17 1 -20 -6 -5 -9 -7
-9 -12 1 -4 9 -11 7 -24 -8 -18 -21 -19 -21 -29 -2 -11 21 -6 32 16 32 8 0 21
7 29 15 21 21 29 19 43 -11z m-193 -141 c-10 -10 -19 5 -10 18 6 11 8 11 12 0
2 -7 1 -15 -2 -18z m-626 9 c0 -13 -12 -22 -22 -16 -10 6 -1 24 13 24 5 0 9
-4 9 -8z m610 -44 c0 -5 -3 -7 -7 -6 -5 1 -19 -4 -31 -11 -27 -15 -27 -14 -36
19 -6 23 -6 23 7 8 18 -23 27 -23 27 0 0 28 11 34 26 14 7 -9 14 -20 14 -24z
m-560 21 c0 -5 5 -7 10 -4 6 3 10 2 10 -3 0 -4 21 -8 48 -7 61 2 74 -3 67 -26
-4 -11 -2 -19 4 -19 5 0 13 10 16 21 6 17 9 19 16 8 19 -30 10 -36 -43 -32
-70 5 -79 9 -71 30 5 15 4 16 -8 7 -12 -10 -74 -12 -89 -4 -5 3 -19 7 -35 9
-15 2 37 30 58 31 9 0 17 -5 17 -11z m600 2 c0 -12 -20 -25 -27 -18 -7 7 6 27
18 27 5 0 9 -4 9 -9z m-120 -44 c0 -6 -3 -7 -7 -4 -3 4 -12 2 -20 -4 -14 -13
-17 -2 -7 25 5 13 9 14 20 5 8 -6 14 -16 14 -22z m-66 7 c7 -17 0 -34 -14 -34
-5 0 -7 7 -4 15 9 22 -5 18 -27 -7 l-19 -23 -6 23 c-8 26 -21 29 -26 5 -3 -15
-5 -14 -10 5 -5 18 -2 22 18 22 15 0 24 -6 24 -15 0 -8 5 -15 10 -15 6 0 10 6
10 14 0 13 13 23 31 25 4 1 10 -6 13 -15z m-139 -20 c0 -25 -9 -31 -20 -14 -5
8 -11 7 -20 0 -18 -15 -35 -5 -35 20 0 15 7 19 38 18 32 0 37 -3 37 -24z"/>
<path d="M1134 1825 c0 -19 1 -35 2 -35 31 0 44 36 22 58 -19 19 -23 15 -24
-23z"/>
<path d="M1788 1765 c-2 -35 0 -45 12 -45 12 0 14 10 12 45 -2 25 -8 45 -12
45 -4 0 -10 -20 -12 -45z"/>
<path d="M1175 1200 c-3 -6 1 -7 9 -4 18 7 21 14 7 14 -6 0 -13 -4 -16 -10z"/>
<path d="M1240 1121 c0 -6 5 -13 10 -16 6 -3 10 1 10 9 0 9 -4 16 -10 16 -5 0
-10 -4 -10 -9z"/>
<path d="M972 950 c0 -19 2 -27 5 -17 2 9 2 25 0 35 -3 9 -5 1 -5 -18z"/>
<path d="M2240 660 c0 -5 4 -10 9 -10 6 0 13 5 16 10 3 6 -1 10 -9 10 -9 0
-16 -4 -16 -10z"/>
<path d="M601 644 c0 -11 3 -14 6 -6 3 7 2 16 -1 19 -3 4 -6 -2 -5 -13z"/>
<path d="M760 630 c0 -5 5 -10 10 -10 6 0 10 5 10 10 0 6 -4 10 -10 10 -5 0
-10 -4 -10 -10z"/>
<path d="M1932 611 c4 -13 18 -16 19 -4 0 4 -5 9 -11 12 -7 2 -11 -2 -8 -8z"/>
<path d="M1830 569 c0 -5 5 -7 10 -4 6 3 10 8 10 11 0 2 -4 4 -10 4 -5 0 -10
-5 -10 -11z"/>
<path d="M1110 430 c0 -5 5 -10 10 -10 6 0 10 5 10 10 0 6 -4 10 -10 10 -5 0
-10 -4 -10 -10z"/>
<path d="M1355 390 c-3 -5 -1 -10 4 -10 6 0 11 5 11 10 0 6 -2 10 -4 10 -3 0
-8 -4 -11 -10z"/>
<path d="M1311 2758 c0 -9 -6 -18 -13 -20 -7 -3 -9 -11 -4 -24 8 -18 9 -17 17
5 6 14 8 32 6 40 -4 14 -5 13 -6 -1z"/>
<path d="M1251 2744 c0 -11 3 -14 6 -6 3 7 2 16 -1 19 -3 4 -6 -2 -5 -13z"/>
<path d="M1100 2745 c0 -3 9 -14 20 -25 22 -22 25 -19 10 11 -10 17 -30 27
-30 14z"/>
<path d="M1041 2704 c0 -11 3 -14 6 -6 3 7 2 16 -1 19 -3 4 -6 -2 -5 -13z"/>
<path d="M1270 2665 c0 -8 2 -15 4 -15 2 0 6 7 10 15 3 8 1 15 -4 15 -6 0 -10
-7 -10 -15z"/>
<path d="M1001 2623 c-12 -27 -12 -27 7 -10 19 17 20 17 46 -13 14 -18 26 -25
26 -17 0 11 -52 67 -63 67 -2 0 -9 -12 -16 -27z"/>
<path d="M1252 2620 c0 -14 2 -19 5 -12 2 6 2 18 0 25 -3 6 -5 1 -5 -13z"/>
<path d="M942 2540 c-24 -28 -39 -50 -33 -50 5 0 13 5 16 11 4 6 14 7 24 4 25
-10 61 -13 61 -5 0 4 -11 11 -25 14 -27 7 -34 33 -10 42 15 6 85 -32 85 -46 0
-4 9 -6 20 -3 17 4 11 12 -35 44 -31 22 -57 39 -58 39 -1 -1 -21 -23 -45 -50z"/>
<path d="M1505 2570 c3 -5 8 -10 11 -10 2 0 4 5 4 10 0 6 -5 10 -11 10 -5 0
-7 -4 -4 -10z"/>
<path d="M1293 2520 c-47 -21 -142 -112 -124 -118 6 -2 24 8 41 21 41 35 82
42 121 23 42 -21 46 -20 24 4 -18 20 -17 20 23 20 22 0 49 3 59 7 13 4 10 -2
-10 -24 -33 -36 -48 -124 -27 -163 15 -27 -2 -42 -37 -33 -13 3 -23 1 -23 -5
0 -14 45 -24 75 -16 30 7 29 4 10 40 -8 16 -15 43 -15 60 l0 32 37 -19 c46
-23 67 -24 103 -2 145 85 -94 247 -257 173z m276 -85 c15 -17 15 -17 -4 -10
-41 16 -83 17 -114 1 -36 -19 -42 -5 -8 19 28 21 102 15 126 -10z m-16 -32
l32 -16 -30 -13 c-38 -16 -77 -17 -109 -3 -21 10 -23 14 -11 25 18 19 36 18
29 -1 -5 -12 2 -15 27 -15 36 0 78 18 49 21 -8 1 -25 0 -37 -1 -13 -1 -23 3
-23 9 0 16 37 13 73 -6z"/>
<path d="M1186 2518 c3 -4 11 -5 19 -1 21 7 19 12 -4 10 -11 0 -18 -5 -15 -9z"/>
<path d="M891 2456 c6 -13 22 -29 35 -35 29 -13 32 -35 4 -26 -15 5 -20 2 -20
-13 0 -15 8 -19 36 -20 83 -3 104 -32 24 -32 -40 0 -50 -3 -50 -16 0 -14 8
-16 59 -11 52 6 63 4 97 -19 49 -32 73 -63 67 -83 -2 -9 1 -7 8 4 11 18 1 30
-112 138 -68 65 -132 123 -141 128 -16 9 -17 7 -7 -15z"/>
<path d="M1215 2414 c-30 -32 -24 -47 25 -69 32 -14 44 -15 74 -5 33 11 56 34
56 57 0 14 -68 43 -101 43 -19 0 -38 -9 -54 -26z m114 -11 c23 -15 23 -17 6
-30 -25 -17 -86 -17 -111 2 -16 13 -17 16 -4 25 21 14 30 12 30 -5 0 -10 11
-15 35 -15 19 0 35 5 35 11 0 5 -8 9 -17 8 -30 -3 -43 1 -43 11 0 16 43 12 69
-7z"/>
<path d="M1584 2311 c-14 -28 -33 -52 -40 -55 -8 -3 -14 -11 -14 -19 0 -9 -11
-12 -37 -9 -31 3 -36 2 -25 -9 16 -17 16 -35 -1 -21 -6 6 -39 10 -72 10 -49
-1 -64 -5 -81 -23 l-21 -23 36 -4 c20 -2 83 -1 141 2 l105 5 22 45 c23 46 31
77 13 50 -14 -22 -12 -7 5 33 33 79 10 91 -31 18z m-129 -131 c-3 -5 -33 -10
-66 -10 -33 0 -59 4 -59 10 0 6 29 10 66 10 41 0 63 -4 59 -10z"/>
<path d="M360 2228 c-16 -29 -41 -82 -56 -118 -14 -36 -36 -87 -49 -115 -37
-78 -40 -95 -11 -60 14 17 30 48 36 70 6 22 35 93 65 158 30 64 52 117 50 117
-3 0 -18 -24 -35 -52z"/>
<path d="M999 2276 c-2 -2 -22 -6 -44 -8 -32 -3 -41 -8 -43 -25 -3 -20 -1 -21
35 -10 21 6 40 14 43 18 3 3 12 8 20 11 9 3 10 7 3 11 -5 4 -12 5 -14 3z"/>
<path d="M2424 2230 c13 -30 37 -84 54 -120 16 -36 35 -84 41 -106 13 -49 41
-80 41 -46 0 12 -4 23 -9 27 -5 3 -15 22 -22 43 -17 53 -93 213 -113 237 -11
13 -8 1 8 -35z"/>
<path d="M430 2228 c-66 -181 -100 -293 -99 -325 1 -45 -4 -58 69 180 29 93
50 170 47 173 -2 3 -10 -10 -17 -28z"/>
<path d="M2350 2248 c0 -6 71 -242 108 -358 11 -33 11 -31 8 25 -3 39 -20 103
-50 184 -45 118 -65 165 -66 149z"/>
<path d="M1670 2200 c6 -11 13 -20 16 -20 2 0 0 9 -6 20 -6 11 -13 20 -16 20
-2 0 0 -9 6 -20z"/>
<path d="M583 2143 c-13 -65 -6 -343 11 -457 9 -60 17 -110 18 -110 2 -1 12
-8 22 -16 18 -14 19 -14 9 5 -29 55 -48 222 -48 418 0 108 -1 197 -2 197 -1 0
-5 -17 -10 -37z"/>
<path d="M2208 1965 c-5 -182 -27 -360 -49 -398 -9 -16 -7 -17 9 -8 14 7 22
29 31 83 21 140 31 303 23 408 l-8 105 -6 -190z"/>
<path d="M446 1921 c-10 -60 -14 -125 -11 -144 17 -87 -76 -588 -115 -627 -16
-16 -15 -18 2 -40 l18 -22 0 41 c0 23 5 41 10 41 6 0 10 10 10 23 0 12 16 67
35 122 31 89 36 117 45 260 6 88 15 225 20 304 6 79 9 146 6 148 -2 2 -11 -45
-20 -106z"/>
<path d="M2334 1960 c3 -36 9 -117 11 -181 13 -280 21 -351 52 -439 17 -47 34
-104 38 -128 9 -55 27 -90 43 -84 6 2 12 8 12 13 0 6 -4 8 -9 5 -10 -6 -24 37
-52 164 -12 52 -25 97 -29 100 -11 8 -42 336 -35 372 6 32 -20 227 -32 238 -3
3 -3 -24 1 -60z"/>
<path d="M262 1792 c-12 -38 -22 -86 -21 -108 1 -36 2 -34 15 23 7 34 20 78
29 99 8 21 12 41 7 46 -4 4 -18 -23 -30 -60z"/>
<path d="M2508 1854 c-6 -9 18 -102 42 -159 8 -18 9 -18 9 5 0 36 -44 167 -51
154z"/>
<path d="M332 1714 c-11 -54 -24 -114 -28 -132 -5 -27 -10 -33 -25 -29 -10 3
-17 1 -14 -4 3 -4 -6 -26 -20 -47 -23 -34 -25 -47 -21 -98 3 -33 5 -69 5 -81
1 -13 5 -23 9 -23 5 0 7 24 4 53 -5 64 11 123 43 160 13 15 26 27 29 27 2 0 7
-17 11 -38 5 -29 0 -56 -19 -106 -14 -38 -26 -80 -25 -95 0 -22 2 -19 13 14 7
22 25 64 39 94 24 49 25 55 12 82 -21 40 -19 120 6 207 14 51 18 81 12 95 -7
16 -14 -2 -31 -79z"/>
<path d="M2435 1792 c-3 -11 3 -56 15 -100 24 -95 25 -150 5 -198 -14 -33 -13
-38 8 -77 12 -23 29 -62 39 -87 9 -25 17 -36 17 -25 0 11 -7 38 -15 60 -41
109 -44 134 -18 173 6 9 50 -45 61 -73 l11 -30 1 31 c1 19 -7 38 -18 48 -11
10 -17 25 -14 34 4 13 3 14 -5 3 -14 -19 -19 -7 -48 130 -14 68 -28 125 -29
127 -2 2 -6 -5 -10 -16z"/>
<path d="M240 1619 c0 -15 -3 -42 -6 -60 l-5 -34 15 25 c18 29 20 59 6 80 -8
12 -10 9 -10 -11z"/>
<path d="M2541 1593 c-1 -17 4 -35 10 -38 16 -11 17 -3 3 35 l-12 35 -1 -32z"/>
<path d="M360 1431 c0 -5 5 -13 10 -16 6 -3 10 -2 10 4 0 5 -4 13 -10 16 -5 3
-10 2 -10 -4z"/>
<path d="M2323 1306 c-9 -11 -8 -50 7 -177 11 -90 20 -173 20 -184 0 -19 0
-19 14 0 19 29 26 84 9 78 -9 -4 -13 6 -13 33 0 22 -7 81 -15 133 -9 51 -13
102 -10 112 7 22 4 23 -12 5z"/>
<path d="M463 1304 c3 -6 0 -53 -8 -105 -8 -52 -15 -114 -15 -138 0 -32 -3
-42 -14 -38 -10 4 -11 -4 -4 -41 14 -78 26 -70 33 24 3 49 13 132 20 184 13
86 13 96 -2 110 -9 8 -13 10 -10 4z"/>
<path d="M504 1251 c7 -11 46 -35 46 -28 0 3 -12 12 -26 22 -15 9 -23 12 -20
6z"/>
<path d="M2265 1238 l-20 -21 22 12 c23 12 40 31 26 30 -4 0 -17 -10 -28 -21z"/>
<path d="M474 965 c11 -32 46 -78 75 -99 23 -17 22 -15 -6 15 -17 19 -41 50
-53 69 -12 19 -19 26 -16 15z"/>
<path d="M2300 935 c-12 -20 -37 -47 -56 -62 -19 -14 -32 -28 -30 -31 11 -10
72 47 94 87 28 50 22 55 -8 6z"/>
</g>
</svg>
